<svg version="1.1" id="Layer_1" xmlns="http://www.w3.org/2000/svg" xmlns:xlink="http://www.w3.org/1999/xlink" x="0px" y="0px"
	 width="100%" viewBox="0 0 512 512" enable-background="new 0 0 512 512" xml:space="preserve">
<path fill="#000000" opacity="1.000000" stroke="none" 
	d="
M272.000000,1.000002 
	C352.292419,1.000000 432.584839,1.000000 512.938599,1.000000 
	C512.938599,171.666672 512.938599,342.333344 512.938599,513.000000 
	C477.901642,513.000000 442.919464,513.000000 407.136902,512.722656 
	C411.261078,508.645355 416.185730,504.845367 421.570251,501.025238 
	C431.611542,501.356537 441.077148,500.932190 450.346069,496.801239 
	C459.914825,491.892273 467.749084,485.579224 472.626740,475.641907 
	C481.535461,460.059723 479.828033,444.099640 475.905762,427.578369 
	C473.944489,414.323608 471.973846,401.478821 469.844330,388.660461 
	C469.027283,383.742462 467.847809,378.884674 466.906311,373.575562 
	C466.950531,371.999084 467.064240,370.822144 466.871399,369.697723 
	C464.887024,358.126465 462.853058,346.563690 460.896698,334.590302 
	C459.639771,326.537231 458.306427,318.894592 457.001373,311.247101 
	C455.178253,300.564026 450.626404,291.411774 443.097595,283.423615 
	C434.625214,274.434296 423.053436,270.909760 412.804962,265.137817 
	C398.585052,257.129150 383.805237,250.114685 369.391205,242.739075 
	C372.016174,232.981689 374.563354,223.513611 377.449768,213.853668 
	C378.913513,209.283218 380.023468,204.900818 381.165680,200.526855 
	C383.117188,193.053619 385.088928,185.585648 387.428070,177.885376 
	C388.943542,166.366470 387.493805,155.554550 381.871857,145.514816 
	C376.746704,136.362305 371.663055,127.185997 366.461792,118.076904 
	C364.489777,114.623276 362.240234,111.328125 360.060425,107.596649 
	C355.434296,99.062996 350.912018,90.866676 346.286224,82.729218 
	C335.240692,63.298416 324.136780,43.954517 308.928253,27.263842 
	C298.794067,16.142046 287.877106,6.607413 272.864410,2.866162 
	C272.447144,2.762186 272.282440,1.644822 272.000000,1.000002 
z"/>
<path fill="#000000" opacity="1.000000" stroke="none" 
	d="
M106.000000,513.000000 
	C71.017876,513.000000 36.035744,513.000000 1.026808,513.000000 
	C1.026808,342.438354 1.026808,171.876709 1.026808,1.000000 
	C80.687286,1.000000 160.374985,1.000000 240.864563,1.290375 
	C240.709946,2.072153 239.787781,2.651166 238.791656,3.041470 
	C228.323990,7.142877 218.733322,12.601601 210.641678,21.023315 
	C207.134918,24.688154 203.686096,28.026333 200.804245,31.797749 
	C196.296265,37.697231 192.171860,43.889816 187.567108,50.094139 
	C180.486328,61.447285 173.723389,72.664520 166.638809,84.041351 
	C165.565460,85.617104 164.829529,87.041908 164.059494,88.448051 
	C158.671234,98.287315 153.275925,108.122726 147.566177,118.117783 
	C142.222137,127.517899 137.194794,136.759613 132.008728,146.333603 
	C125.484612,157.891632 123.969093,169.661453 127.933472,182.446915 
	C129.991226,190.277542 131.902527,197.728607 134.025681,205.118820 
	C136.989761,215.436157 140.112045,225.708069 143.098877,236.378448 
	C143.553314,238.709167 144.075485,240.660858 144.562454,242.480942 
	C134.258682,248.014755 124.073029,253.485123 113.522072,258.983276 
	C103.131737,264.149750 92.930923,268.980438 83.156425,274.558197 
	C78.327179,277.313965 74.284241,281.447632 69.573326,285.089600 
	C68.153908,286.603149 67.046936,287.985107 65.939384,289.366577 
	C57.123062,300.363525 56.605057,313.789612 54.597733,327.096619 
	C54.055550,329.103699 53.959652,330.912933 53.675224,332.692017 
	C51.526524,346.131927 49.340809,359.565918 47.093323,373.416199 
	C44.068691,391.554138 41.117382,409.277557 38.093033,427.418701 
	C37.013340,436.722382 35.330894,445.594482 35.147724,454.497437 
	C34.817135,470.565582 42.774010,482.719025 55.346992,492.010010 
	C64.723061,498.938568 75.431061,501.590454 87.044273,501.080200 
	C88.996750,500.994446 91.273575,501.525726 92.920288,502.546570 
	C97.408257,505.328796 101.649849,508.510834 105.942970,511.598572 
	C106.176941,511.766876 105.990669,512.519409 106.000000,513.000000 
z"/>
<path fill="#6DDFDE" opacity="1.000000" stroke="none" 
	d="
M271.531342,1.000002 
	C272.282440,1.644822 272.447144,2.762186 272.864410,2.866162 
	C287.877106,6.607413 298.794067,16.142046 308.928253,27.263842 
	C324.136780,43.954517 335.240692,63.298416 346.286224,82.729218 
	C350.912018,90.866676 355.434296,99.062996 359.714294,107.547310 
	C356.359406,105.151260 353.423462,102.270073 350.175446,99.799080 
	C348.462463,98.495895 346.205017,97.908318 344.031128,96.673409 
	C331.419830,76.907288 319.676636,56.958153 306.223022,38.238270 
	C299.532471,28.928762 290.625854,20.904745 279.958801,15.340096 
	C270.107239,10.200875 259.662292,9.727137 248.932510,9.492787 
	C247.242111,6.434928 245.621048,3.717467 244.000000,1.000002 
	C253.020889,1.000000 262.041779,1.000000 271.531342,1.000002 
z"/>
<path fill="#BC57FE" opacity="1.000000" stroke="none" 
	d="
M106.416664,513.000000 
	C105.990669,512.519409 106.176941,511.766876 105.942970,511.598572 
	C101.649849,508.510834 97.408257,505.328796 92.920288,502.546570 
	C91.273575,501.525726 88.996750,500.994446 87.044273,501.080200 
	C75.431061,501.590454 64.723061,498.938568 55.346992,492.010010 
	C42.774010,482.719025 34.817135,470.565582 35.147724,454.497437 
	C35.330894,445.594482 37.013340,436.722382 38.451721,427.438782 
	C41.292473,428.045319 43.701488,429.049438 46.060905,430.485474 
	C45.793819,432.693451 45.498810,434.463959 45.372555,436.246460 
	C44.884232,443.140717 43.545906,450.121033 44.164665,456.920013 
	C46.018635,477.291565 64.493080,492.636627 86.444695,491.849548 
	C86.257538,490.579834 86.071358,489.309967 86.231308,488.088928 
	C89.581467,490.693970 92.828499,493.018188 95.537926,495.855713 
	C100.850266,501.419281 105.863167,507.268829 111.000000,513.000000 
	C109.611107,513.000000 108.222221,513.000000 106.416664,513.000000 
z"/>
<path fill="#B85EFC" opacity="1.000000" stroke="none" 
	d="
M111.468658,513.000000 
	C105.863167,507.268829 100.850266,501.419281 95.537926,495.855713 
	C92.828499,493.018188 89.581467,490.693970 85.868500,487.858215 
	C85.106102,485.085358 85.223236,482.573853 84.960007,480.102875 
	C84.545723,476.214142 85.924866,474.780151 89.986404,474.912537 
	C97.966324,475.172668 105.962723,474.927216 114.100586,475.204407 
	C117.110283,478.678680 119.971710,481.839478 122.905914,485.463684 
	C122.978683,492.194489 122.978683,498.461853 122.978683,505.166779 
	C132.392242,505.166779 141.195480,505.166779 150.066025,505.502319 
	C151.422226,508.225220 152.711105,510.612610 154.000000,513.000000 
	C139.979111,513.000000 125.958214,513.000000 111.468658,513.000000 
M112.906876,503.919373 
	C113.421921,497.393494 113.936974,490.867615 114.478996,483.999969 
	C110.284180,483.999969 107.146370,483.999939 104.008560,483.999939 
	C100.746513,483.999939 97.484474,483.999969 94.094940,483.999969 
	C97.245369,494.983582 102.214546,500.290161 112.906876,503.919373 
z"/>
<path fill="#9796EF" opacity="1.000000" stroke="none" 
	d="
M421.110352,501.045410 
	C416.185730,504.845367 411.261078,508.645355 406.668213,512.722656 
	C401.645081,513.000000 396.290131,513.000000 390.404236,512.661865 
	C388.582153,509.938141 387.291046,507.552490 386.441162,505.093536 
	C388.142517,505.020233 389.402618,505.020233 391.166046,505.020233 
	C391.166046,494.043365 391.166046,483.521667 391.517365,473.018677 
	C395.245819,476.636139 398.622955,480.234863 401.569946,483.924072 
	C400.595428,490.557312 400.051025,497.100037 399.506653,503.642731 
	C400.023743,504.023041 400.540833,504.403351 401.057953,504.783661 
	C405.341278,501.839722 409.624603,498.895813 414.260681,496.017914 
	C416.779083,497.737762 418.944733,499.391571 421.110352,501.045410 
z"/>
<path fill="#B268FA" opacity="1.000000" stroke="none" 
	d="
M154.468658,513.000000 
	C152.711105,510.612610 151.422226,508.225220 150.529617,505.428284 
	C167.950073,505.067902 184.974243,505.117065 202.017426,505.516724 
	C203.357620,508.244812 204.678802,510.622406 206.000000,513.000000 
	C188.979111,513.000000 171.958206,513.000000 154.468658,513.000000 
z"/>
<path fill="#A185F3" opacity="1.000000" stroke="none" 
	d="
M344.000000,513.000000 
	C328.645782,513.000000 313.291534,513.000000 297.404541,512.660583 
	C295.580170,509.936615 294.288605,507.552032 293.460876,505.093994 
	C309.283081,505.069305 324.641418,505.118134 340.018555,505.517395 
	C341.358276,508.245209 342.679138,510.622620 344.000000,513.000000 
z"/>
<path fill="#AC72F8" opacity="1.000000" stroke="none" 
	d="
M206.468658,513.000000 
	C204.678802,510.622406 203.357620,508.244812 202.481110,505.442993 
	C217.949738,505.068115 232.973694,505.117462 248.071106,505.495544 
	C249.429718,508.216156 250.714859,510.608093 252.000000,513.000000 
	C236.979111,513.000000 221.958206,513.000000 206.468658,513.000000 
z"/>
<path fill="#9C8DF1" opacity="1.000000" stroke="none" 
	d="
M344.468658,513.000000 
	C342.679138,510.622620 341.358276,508.245209 340.482178,505.444031 
	C355.951263,505.069122 370.975616,505.117981 385.999939,505.166809 
	C387.291046,507.552490 388.582153,509.938141 389.936646,512.661865 
	C374.979095,513.000000 359.958221,513.000000 344.468658,513.000000 
z"/>
<path fill="#73D5E0" opacity="1.000000" stroke="none" 
	d="
M243.625000,1.000002 
	C245.621048,3.717467 247.242111,6.434928 248.543091,9.573815 
	C241.316818,13.048700 234.209579,15.727937 227.577255,19.291103 
	C223.365662,21.553743 219.860077,25.130495 215.973419,27.775251 
	C214.257217,25.252007 212.605499,23.071447 210.953796,20.890888 
	C218.733322,12.601601 228.323990,7.142877 238.791656,3.041470 
	C239.787781,2.651166 240.709946,2.072153 241.333221,1.290375 
	C241.750000,1.000000 242.500000,1.000000 243.625000,1.000002 
z"/>
<path fill="#A879F6" opacity="1.000000" stroke="none" 
	d="
M252.468658,513.000000 
	C250.714859,510.608093 249.429718,508.216156 248.534927,505.422089 
	C263.615875,505.069092 278.306427,505.118286 292.997009,505.167480 
	C294.288605,507.552032 295.580170,509.936615 296.935883,512.660583 
	C282.312439,513.000000 267.624878,513.000000 252.468658,513.000000 
z"/>
<path fill="#7BC6E4" opacity="1.000000" stroke="none" 
	d="
M377.110504,214.045517 
	C374.563354,223.513611 372.016174,232.981689 369.391205,242.739075 
	C383.805237,250.114685 398.585052,257.129150 412.804962,265.137817 
	C423.053436,270.909760 434.625214,274.434296 443.097595,283.423615 
	C450.626404,291.411774 455.178253,300.564026 457.001373,311.247101 
	C458.306427,318.894592 459.639771,326.537231 460.586182,334.491028 
	C457.197021,332.866516 454.182220,330.932953 451.084564,328.592346 
	C450.334839,325.043671 449.313812,321.930328 449.060059,318.755676 
	C447.674652,301.419739 439.309570,288.998230 423.694702,281.238159 
	C406.106171,272.497223 388.660675,263.468719 371.119812,254.631119 
	C369.575623,253.853119 367.785828,253.562653 365.816498,252.881363 
	C363.404236,251.144547 361.285553,249.572098 359.094452,247.602142 
	C359.347168,245.971970 359.642761,244.730637 360.002075,243.508026 
	C363.289520,232.323578 366.588013,221.142365 370.248657,209.983109 
	C372.779480,211.352524 374.945007,212.699020 377.110504,214.045517 
z"/>
<path fill="#939EED" opacity="1.000000" stroke="none" 
	d="
M402.000092,483.833557 
	C398.622955,480.234863 395.245819,476.636139 391.444305,472.555054 
	C391.069122,460.049622 391.118347,448.026550 391.520203,436.021667 
	C394.526093,437.359924 397.179352,438.679993 399.906067,440.463623 
	C399.979492,452.176605 399.979492,463.426056 399.979492,474.999664 
	C408.328461,474.999664 416.122040,475.214386 423.895508,474.911896 
	C427.973999,474.753204 429.253601,476.569977 428.968750,480.101593 
	C428.681641,483.660980 428.142761,487.200043 427.564850,491.984222 
	C433.768280,490.700134 439.885712,489.433838 446.021729,488.520142 
	C447.358063,491.525055 448.675781,494.177338 449.993530,496.829651 
	C441.077148,500.932190 431.611542,501.356537 421.570251,501.025238 
	C418.944733,499.391571 416.779083,497.737762 414.395905,495.697693 
	C416.329254,491.856750 418.480194,488.402039 421.324554,483.833557 
	C413.813751,483.833557 407.906921,483.833557 402.000092,483.833557 
z"/>
<path fill="#70D9DF" opacity="1.000000" stroke="none" 
	d="
M344.193420,96.997635 
	C346.205017,97.908318 348.462463,98.495895 350.175446,99.799080 
	C353.423462,102.270073 356.359406,105.151260 359.771118,107.911400 
	C362.240234,111.328125 364.489777,114.623276 366.461792,118.076904 
	C371.663055,127.185997 376.746704,136.362305 381.871857,145.514816 
	C387.493805,155.554550 388.943542,166.366470 387.260132,177.588104 
	C384.463684,175.304398 382.211029,173.087860 379.976807,170.458435 
	C379.385773,166.900787 379.385651,163.466751 378.055328,160.664108 
	C373.631165,151.343430 368.854584,142.182281 363.979156,133.085373 
	C357.499023,120.994423 350.798981,109.021347 344.193420,96.997635 
z"/>
<path fill="#83B8E7" opacity="1.000000" stroke="none" 
	d="
M466.833496,373.999451 
	C467.847809,378.884674 469.027283,383.742462 469.844330,388.660461 
	C471.973846,401.478821 473.944489,414.323608 475.553833,427.559631 
	C472.141815,426.306915 469.154449,424.652374 466.094330,422.571594 
	C465.163971,416.729675 464.280518,411.317963 463.454041,405.897614 
	C461.581024,393.613251 459.736084,381.324615 458.227386,369.087280 
	C461.327850,370.757721 464.080688,372.378601 466.833496,373.999451 
z"/>
<path fill="#89AFE9" opacity="1.000000" stroke="none" 
	d="
M466.167114,422.997864 
	C469.154449,424.652374 472.141815,426.306915 475.481079,427.980164 
	C479.828033,444.099640 481.535461,460.059723 472.532837,475.243408 
	C470.415283,472.688202 468.683594,470.274384 466.980591,467.476898 
	C468.005035,464.048279 469.609711,461.057892 469.888519,457.948608 
	C470.951660,446.092194 468.436615,434.542572 466.167114,422.997864 
z"/>
<path fill="#7EC0E6" opacity="1.000000" stroke="none" 
	d="
M466.906311,373.575562 
	C464.080688,372.378601 461.327850,370.757721 457.877136,368.874390 
	C456.192657,362.575256 455.148224,356.547333 454.234589,350.499603 
	C453.153259,343.341766 452.184845,336.166870 451.167450,328.999390 
	C454.182220,330.932953 457.197021,332.866516 460.522339,334.899292 
	C462.853058,346.563690 464.887024,358.126465 466.871399,369.697723 
	C467.064240,370.822144 466.950531,371.999084 466.906311,373.575562 
z"/>
<path fill="#76CFE2" opacity="1.000000" stroke="none" 
	d="
M379.958374,170.871307 
	C382.211029,173.087860 384.463684,175.304398 386.884216,177.818207 
	C385.088928,185.585648 383.117188,193.053619 381.165680,200.526855 
	C380.023468,204.900818 378.913513,209.283218 377.449768,213.853668 
	C374.945007,212.699020 372.779480,211.352524 370.301086,209.575928 
	C370.660706,206.350281 371.282288,203.541290 372.014954,200.761566 
	C374.642456,190.792786 377.307526,180.833908 379.958374,170.871307 
z"/>
<path fill="#8EA6EB" opacity="1.000000" stroke="none" 
	d="
M466.951904,467.860535 
	C468.683594,470.274384 470.415283,472.688202 472.240906,475.500488 
	C467.749084,485.579224 459.914825,491.892273 450.346069,496.801239 
	C448.675781,494.177338 447.358063,491.525055 446.348206,488.365967 
	C455.805695,483.612732 462.206482,476.576630 466.951904,467.860535 
z"/>
<path fill="#9894F0" opacity="1.000000" stroke="none" 
	d="
M113.887375,258.955505 
	C124.073029,253.485123 134.258682,248.014755 144.562454,242.480942 
	C144.075485,240.660858 143.553314,238.709167 143.429199,236.451645 
	C146.917648,237.749268 150.008011,239.352722 153.436859,241.151642 
	C154.812714,248.052261 156.738617,254.543182 161.851440,259.198120 
	C166.941101,263.831940 172.570389,267.901031 178.159256,271.946716 
	C180.969833,273.981262 181.456787,276.700256 179.732895,278.856506 
	C178.724228,280.118164 175.056946,280.775909 173.640350,279.932922 
	C166.576706,275.729492 158.925842,272.122894 154.271484,264.785614 
	C151.632126,260.624908 148.949417,256.491699 146.259659,252.304749 
	C137.282883,256.860321 128.159225,261.490448 118.970398,265.776062 
	C117.232620,263.272827 115.559998,261.114166 113.887375,258.955505 
z"/>
<path fill="#949CEE" opacity="1.000000" stroke="none" 
	d="
M153.098373,240.956192 
	C150.008011,239.352722 146.917648,237.749268 143.496948,236.072601 
	C140.112045,225.708069 136.989761,215.436157 134.025681,205.118820 
	C131.902527,197.728607 129.991226,190.277542 128.280411,182.496277 
	C131.661514,184.093170 134.747620,186.047409 138.005264,188.349854 
	C143.150665,206.117432 148.124512,223.536804 153.098373,240.956192 
z"/>
<path fill="#B464FB" opacity="1.000000" stroke="none" 
	d="
M46.110504,430.053558 
	C43.701488,429.049438 41.292473,428.045319 38.524765,427.021118 
	C41.117382,409.277557 44.068691,391.554138 47.417660,373.486450 
	C50.154678,374.761810 52.494038,376.381439 54.905426,378.415649 
	C53.318325,388.839539 51.704353,398.856567 49.984734,408.855438 
	C48.767334,415.934174 47.407024,422.988403 46.110504,430.053558 
z"/>
<path fill="#A185F3" opacity="1.000000" stroke="none" 
	d="
M113.522072,258.983276 
	C115.559998,261.114166 117.232620,263.272827 118.801674,266.097412 
	C115.848015,268.170898 112.935600,269.466125 110.158745,271.005829 
	C98.788200,277.310516 87.459000,283.689728 75.787445,289.955719 
	C73.602043,288.232544 71.743782,286.595184 69.885529,284.957855 
	C74.284241,281.447632 78.327179,277.313965 83.156425,274.558197 
	C92.930923,268.980438 103.131737,264.149750 113.522072,258.983276 
z"/>
<path fill="#A879F6" opacity="1.000000" stroke="none" 
	d="
M69.573334,285.089600 
	C71.743782,286.595184 73.602043,288.232544 75.732475,290.309265 
	C69.353989,298.805298 65.932365,308.080933 64.888535,318.459808 
	C64.395782,323.359344 62.883316,328.156342 61.508755,332.928680 
	C59.108654,330.866669 57.032681,328.875732 54.956703,326.884827 
	C56.605057,313.789612 57.123062,300.363525 65.939384,289.366577 
	C67.046936,287.985107 68.153908,286.603149 69.573334,285.089600 
z"/>
<path fill="#AE6FF9" opacity="1.000000" stroke="none" 
	d="
M54.597733,327.096619 
	C57.032681,328.875732 59.108654,330.866669 61.581482,333.361511 
	C61.982639,335.028015 62.160015,336.220581 61.964863,337.348663 
	C59.619690,350.904999 57.219349,364.451782 54.833405,378.001038 
	C52.494038,376.381439 50.154678,374.761810 47.490982,373.071960 
	C49.340809,359.565918 51.526524,346.131927 53.675224,332.692017 
	C53.959652,330.912933 54.055550,329.103699 54.597733,327.096619 
z"/>
<path fill="#7EC0E6" opacity="1.000000" stroke="none" 
	d="
M166.960449,83.881760 
	C173.723389,72.664520 180.486328,61.447285 187.911255,50.160641 
	C190.722946,51.764946 192.872635,53.438660 194.893875,55.435352 
	C187.525391,67.549789 180.285324,79.341240 172.879684,90.831970 
	C170.796219,88.314751 168.878326,86.098251 166.960449,83.881760 
z"/>
<path fill="#85B5E8" opacity="1.000000" stroke="none" 
	d="
M166.638809,84.041351 
	C168.878326,86.098251 170.796219,88.314751 172.733856,91.152893 
	C166.650146,102.800934 160.546661,113.827332 154.273712,124.493591 
	C152.030441,122.075424 149.956650,120.017395 147.882874,117.959366 
	C153.275925,108.122726 158.671234,98.287315 164.059494,88.448051 
	C164.829529,87.041908 165.565460,85.617104 166.638809,84.041351 
z"/>
<path fill="#90A3EC" opacity="1.000000" stroke="none" 
	d="
M137.833725,188.001663 
	C134.747620,186.047409 131.661514,184.093170 128.228470,182.089569 
	C123.969093,169.661453 125.484612,157.891632 132.360931,146.352386 
	C134.928818,148.064301 136.985764,150.089691 139.010239,152.486938 
	C135.803024,158.498260 134.274902,164.559570 135.053314,170.987335 
	C135.743607,176.687424 136.889145,182.332367 137.833725,188.001663 
z"/>
<path fill="#78CBE3" opacity="1.000000" stroke="none" 
	d="
M195.022308,55.112366 
	C192.872635,53.438660 190.722946,51.764946 188.229095,50.024734 
	C192.171860,43.889816 196.296265,37.697231 200.804245,31.797749 
	C203.686096,28.026333 207.134918,24.688154 210.641678,21.023315 
	C212.605499,23.071447 214.257217,25.252007 215.842941,28.090328 
	C214.939575,29.930838 214.156952,31.157179 213.255920,32.289284 
	C207.192093,39.908150 201.103119,47.507019 195.022308,55.112366 
z"/>
<path fill="#8BABEA" opacity="1.000000" stroke="none" 
	d="
M139.042694,152.115082 
	C136.985764,150.089691 134.928818,148.064301 132.519669,146.020111 
	C137.194794,136.759613 142.222137,127.517899 147.566177,118.117775 
	C149.956650,120.017395 152.030441,122.075424 154.097443,124.779167 
	C149.074677,134.321625 144.058685,143.218353 139.042694,152.115082 
z"/>
<path fill="#000000" opacity="1.000000" stroke="none" 
	d="
M139.010239,152.486938 
	C144.058685,143.218353 149.074677,134.321625 154.266922,125.139305 
	C160.546661,113.827332 166.650146,102.800934 172.899445,91.453613 
	C180.285324,79.341240 187.525391,67.549789 194.893860,55.435349 
	C201.103119,47.507019 207.192093,39.908150 213.255920,32.289284 
	C214.156952,31.157179 214.939575,29.930838 215.907440,28.433014 
	C219.860077,25.130495 223.365662,21.553743 227.577255,19.291103 
	C234.209579,15.727937 241.316818,13.048700 248.612427,9.914213 
	C259.662292,9.727137 270.107239,10.200875 279.958801,15.340096 
	C290.625854,20.904745 299.532471,28.928762 306.223022,38.238270 
	C319.676636,56.958153 331.419830,76.907288 344.031128,96.673401 
	C350.798981,109.021347 357.499023,120.994423 363.979156,133.085373 
	C368.854584,142.182281 373.631165,151.343430 378.055328,160.664108 
	C379.385651,163.466751 379.385773,166.900787 379.976807,170.458435 
	C377.307526,180.833908 374.642456,190.792786 372.014954,200.761566 
	C371.282288,203.541290 370.660706,206.350281 369.935730,209.553040 
	C366.588013,221.142365 363.289520,232.323578 360.002075,243.508026 
	C359.642761,244.730637 359.347168,245.971970 358.936432,247.934113 
	C355.350250,257.609344 349.473175,264.511871 341.161072,269.355835 
	C339.211884,270.491730 337.209564,271.619965 335.506805,273.073914 
	C333.404907,274.868683 331.922455,277.679565 334.481018,279.570496 
	C336.059662,280.737213 339.484436,280.697784 341.434113,279.798615 
	C345.346954,277.994049 349.104523,275.570587 352.408112,272.787598 
	C358.698273,267.488739 364.417725,261.615692 366.110107,253.045746 
	C367.785828,253.562653 369.575623,253.853119 371.119812,254.631119 
	C388.660675,263.468719 406.106171,272.497223 423.694702,281.238159 
	C439.309570,288.998230 447.674652,301.419739 449.060059,318.755676 
	C449.313812,321.930328 450.334839,325.043671 451.084564,328.592346 
	C452.184845,336.166870 453.153259,343.341766 454.234589,350.499603 
	C455.148224,356.547333 456.192657,362.575256 457.529480,368.824829 
	C459.736084,381.324615 461.581024,393.613251 463.454041,405.897614 
	C464.280518,411.317963 465.163971,416.729675 466.094330,422.571594 
	C468.436615,434.542572 470.951660,446.092194 469.888519,457.948608 
	C469.609711,461.057892 468.005035,464.048279 466.980591,467.476898 
	C462.206482,476.576630 455.805695,483.612732 446.329590,488.013367 
	C439.885712,489.433838 433.768280,490.700134 427.564850,491.984222 
	C428.142761,487.200043 428.681641,483.660980 428.968750,480.101593 
	C429.253601,476.569977 427.973999,474.753204 423.895508,474.911896 
	C416.122040,475.214386 408.328461,474.999664 399.979492,474.999664 
	C399.979492,463.426056 399.979492,452.176605 399.979126,439.999969 
	C399.930511,423.382233 399.882263,407.691681 399.906952,391.537354 
	C399.931305,376.715668 399.882690,362.357788 399.906830,347.536255 
	C399.986542,338.579559 400.057465,330.085907 399.982147,321.593567 
	C399.908722,313.318329 393.799377,305.223480 385.679810,304.155701 
	C377.878479,303.129791 369.901062,303.442505 361.537415,303.093384 
	C348.383057,303.068665 335.692352,303.117615 322.537994,303.092896 
	C309.717163,303.068939 297.359955,303.118591 284.539062,303.094604 
	C269.384247,303.070282 254.693146,303.119659 239.538300,303.095551 
	C224.050491,303.070221 209.026413,303.118408 193.538513,303.093353 
	C181.050735,303.069550 169.026779,303.118988 156.538940,303.095154 
	C148.624161,303.014954 141.154953,302.684357 133.728149,303.104065 
	C127.835945,303.437012 121.860237,304.388489 117.997391,310.346680 
	C116.560379,313.383636 114.281647,316.055634 114.178864,318.808868 
	C113.791298,329.191223 114.111389,339.599945 114.093430,350.462585 
	C114.069008,364.617279 114.117691,378.308167 114.093506,392.462769 
	C114.069305,406.950958 114.117981,420.975433 114.093475,435.463562 
	C113.997635,448.915070 113.974968,461.903015 113.952309,474.890930 
	C105.962723,474.927216 97.966324,475.172668 89.986404,474.912537 
	C85.924866,474.780151 84.545723,476.214142 84.960007,480.102875 
	C85.223236,482.573853 85.106102,485.085358 85.522362,487.809387 
	C86.071358,489.309967 86.257538,490.579834 86.444695,491.849548 
	C64.493080,492.636627 46.018635,477.291565 44.164665,456.920013 
	C43.545906,450.121033 44.884232,443.140717 45.372555,436.246460 
	C45.498810,434.463959 45.793819,432.693451 46.060905,430.485474 
	C47.407024,422.988403 48.767334,415.934174 49.984734,408.855438 
	C51.704353,398.856567 53.318325,388.839539 54.905430,378.415649 
	C57.219349,364.451782 59.619690,350.904999 61.964863,337.348663 
	C62.160015,336.220581 61.982639,335.028015 61.905609,333.432617 
	C62.883316,328.156342 64.395782,323.359344 64.888535,318.459808 
	C65.932365,308.080933 69.353989,298.805298 76.059616,290.395081 
	C87.459000,283.689728 98.788200,277.310516 110.158745,271.005829 
	C112.935600,269.466125 115.848015,268.170898 118.866837,266.441925 
	C128.159225,261.490448 137.282883,256.860321 146.259659,252.304749 
	C148.949417,256.491699 151.632126,260.624908 154.271484,264.785614 
	C158.925842,272.122894 166.576706,275.729492 173.640350,279.932922 
	C175.056946,280.775909 178.724228,280.118164 179.732895,278.856506 
	C181.456787,276.700256 180.969833,273.981262 178.159256,271.946716 
	C172.570389,267.901031 166.941101,263.831940 161.851440,259.198120 
	C156.738617,254.543182 154.812714,248.052261 153.436859,241.151642 
	C148.124512,223.536804 143.150665,206.117432 138.005264,188.349854 
	C136.889145,182.332367 135.743607,176.687424 135.053314,170.987335 
	C134.274902,164.559570 135.803024,158.498260 139.010239,152.486938 
M232.268372,127.246613 
	C227.699127,129.162643 223.122345,131.060928 218.562149,132.998245 
	C207.690430,137.616913 196.826538,142.253998 185.200516,146.985733 
	C176.605698,149.363892 171.069504,154.848831 167.882812,163.174301 
	C164.339874,172.430496 167.309540,180.720139 170.986954,189.822388 
	C172.003265,192.870804 172.812119,196.007812 174.069855,198.953125 
	C181.690598,216.798813 189.131958,234.729782 197.206131,252.370026 
	C202.230972,263.348145 211.860947,269.060486 223.558014,269.812592 
	C235.656265,270.590424 247.849686,269.888214 260.928497,269.979004 
	C268.217102,269.986115 275.508026,269.877838 282.793762,270.025665 
	C295.790619,270.289368 306.716187,266.366638 314.801117,254.744217 
	C322.140564,237.160248 329.480011,219.576279 336.985443,201.247589 
	C340.315155,193.749405 344.420044,186.488098 346.800201,178.699722 
	C350.764984,165.726044 342.452820,151.959351 330.433899,147.157867 
	C321.148315,143.448318 311.892517,139.664230 302.610474,135.945740 
	C294.416351,132.663086 286.204224,129.425293 277.326630,125.844566 
	C275.467377,124.893814 273.703369,123.611496 271.733551,123.045792 
	C258.292389,119.185722 245.378952,120.774940 232.268372,127.246613 
z"/>
<path fill="#000000" opacity="1.000000" stroke="none" 
	d="
M391.167572,436.003510 
	C391.118347,448.026550 391.069122,460.049622 391.092987,472.536316 
	C391.166046,483.521667 391.166046,494.043365 391.166046,505.020233 
	C389.402618,505.020233 388.142517,505.020233 386.441162,505.093506 
	C370.975616,505.117981 355.951263,505.069122 340.463318,505.093628 
	C324.641418,505.118134 309.283081,505.069305 293.460876,505.093994 
	C278.306427,505.118286 263.615875,505.069092 248.461456,505.093384 
	C232.973694,505.117462 217.949738,505.068115 202.462112,505.092529 
	C184.974243,505.117065 167.950073,505.067902 150.462296,505.092743 
	C141.195480,505.166779 132.392242,505.166779 122.978683,505.166779 
	C122.978683,498.461853 122.978683,492.194489 122.979889,485.000244 
	C122.931580,469.048798 122.882080,454.024292 122.906357,438.536285 
	C122.930809,425.048126 122.881470,412.023407 122.905807,398.535370 
	C122.930779,384.714142 122.882088,371.356293 122.906799,357.534973 
	C122.987038,346.014557 122.778450,334.950500 123.143280,323.905365 
	C123.241684,320.926086 125.079887,318.004272 126.458618,314.901855 
	C129.614624,313.831879 132.402115,312.249878 135.253830,312.124054 
	C144.157272,311.731201 153.085022,311.888824 162.466736,311.906189 
	C176.287415,311.930542 189.644714,311.881775 203.465454,311.906189 
	C217.953201,311.930847 231.977478,311.882263 246.465271,311.906677 
	C261.619995,311.930786 276.311218,311.881866 291.465820,311.905914 
	C304.619812,311.930145 317.310455,311.881439 330.464569,311.905823 
	C342.285614,311.930634 353.643188,311.882324 365.463928,311.907043 
	C370.229797,311.986725 374.547363,312.225739 378.831879,311.950409 
	C387.068909,311.421143 392.063843,316.889160 392.017883,325.146088 
	C391.982910,331.430298 392.110992,337.715424 392.092896,344.463593 
	C392.068420,359.285126 392.117584,373.643219 392.093262,388.464722 
	C391.735718,404.619965 391.451630,420.311737 391.167572,436.003510 
M223.184631,397.366119 
	C220.199356,411.673523 221.778931,424.730255 233.511047,434.996887 
	C242.908859,443.220764 256.929474,446.537506 268.733002,441.970825 
	C270.760376,440.988983 272.902527,440.188568 274.794067,438.992035 
	C281.023712,435.051361 286.748016,430.604553 289.171722,422.308075 
	C293.181366,415.856110 293.028687,408.470642 291.652496,401.774170 
	C286.958588,378.933929 262.968475,366.539429 241.233505,376.994904 
	C232.522339,381.101715 226.821030,387.825256 223.184631,397.366119 
z"/>
<path fill="#B268FA" opacity="1.000000" stroke="none" 
	d="
M122.832573,438.999756 
	C122.882080,454.024292 122.931580,469.048798 122.907112,484.536804 
	C119.971710,481.839478 117.110283,478.678680 114.100586,475.204407 
	C113.974968,461.903015 113.997635,448.915070 114.425285,435.537170 
	C117.497711,436.431396 120.165138,437.715576 122.832573,438.999756 
z"/>
<path fill="#000000" opacity="1.000000" stroke="none" 
	d="
M112.515152,503.768860 
	C102.214546,500.290161 97.245369,494.983582 94.094940,483.999969 
	C97.484474,483.999969 100.746513,483.999939 104.008560,483.999939 
	C107.146370,483.999939 110.284180,483.999969 114.478996,483.999969 
	C113.936974,490.867615 113.421921,497.393494 112.515152,503.768860 
z"/>
<path fill="#000000" opacity="1.000000" stroke="none" 
	d="
M401.569946,483.924072 
	C407.906921,483.833557 413.813751,483.833557 421.324554,483.833557 
	C418.480194,488.402039 416.329254,491.856750 414.043152,495.631683 
	C409.624603,498.895813 405.341278,501.839722 401.057953,504.783661 
	C400.540833,504.403351 400.023743,504.023041 399.506653,503.642731 
	C400.051025,497.100037 400.595428,490.557312 401.569946,483.924072 
z"/>
<path fill="#82BAE7" opacity="1.000000" stroke="none" 
	d="
M365.816498,252.881378 
	C364.417725,261.615692 358.698273,267.488739 352.408112,272.787598 
	C349.104523,275.570587 345.346954,277.994049 341.434113,279.798615 
	C339.484436,280.697784 336.059662,280.737213 334.481018,279.570496 
	C331.922455,277.679565 333.404907,274.868683 335.506805,273.073914 
	C337.209564,271.619965 339.211884,270.491730 341.161072,269.355835 
	C349.473175,264.511871 355.350250,257.609344 359.008881,248.331619 
	C361.285553,249.572098 363.404236,251.144547 365.816498,252.881378 
z"/>
<path fill="#8EA6EB" opacity="1.000000" stroke="none" 
	d="
M391.520203,436.021667 
	C391.451630,420.311737 391.735718,404.619965 392.421021,388.536743 
	C395.159485,389.430573 397.496765,390.715851 399.833984,392.001129 
	C399.882263,407.691681 399.930511,423.382233 399.905701,439.536438 
	C397.179352,438.679993 394.526093,437.359924 391.520203,436.021667 
z"/>
<path fill="#90A3EC" opacity="1.000000" stroke="none" 
	d="
M260.001465,269.833435 
	C247.849686,269.888214 235.656265,270.590424 223.558014,269.812592 
	C211.860947,269.060486 202.230972,263.348145 197.206131,252.370026 
	C189.131958,234.729782 181.690598,216.798813 174.069855,198.953125 
	C172.812119,196.007812 172.003265,192.870804 171.304260,189.436981 
	C173.469742,190.256332 175.297287,191.494324 177.171860,192.656479 
	C179.034210,193.811020 180.943863,194.889267 182.997284,196.340515 
	C190.166046,213.273788 196.867249,230.004623 204.289490,246.409241 
	C208.660599,256.070282 216.542984,261.253296 227.608841,261.044281 
	C236.402420,260.878143 245.203522,261.110504 254.074249,261.491516 
	C256.098633,264.489197 258.050049,267.161316 260.001465,269.833435 
z"/>
<path fill="#78CBE3" opacity="1.000000" stroke="none" 
	d="
M278.000061,126.167686 
	C286.204224,129.425293 294.416351,132.663086 302.610474,135.945740 
	C311.892517,139.664230 321.148315,143.448318 330.433899,147.157867 
	C342.452820,151.959351 350.764984,165.726044 346.800201,178.699722 
	C344.420044,186.488098 340.315155,193.749405 336.544617,201.600967 
	C333.696899,200.956314 331.290070,199.958282 328.936340,198.577209 
	C331.314819,192.536514 333.557556,186.843094 335.985748,181.229904 
	C339.272949,173.631027 339.516876,165.309067 332.293243,159.969513 
	C328.464874,157.139679 324.032135,155.013031 319.650421,153.068863 
	C308.821899,148.264221 297.865540,143.747803 286.910339,138.765289 
	C283.906769,134.332581 280.953400,130.250122 278.000061,126.167686 
z"/>
<path fill="#83B8E7" opacity="1.000000" stroke="none" 
	d="
M392.166504,344.000122 
	C392.110992,337.715424 391.982910,331.430298 392.017883,325.146088 
	C392.063843,316.889160 387.068909,311.421143 378.831879,311.950409 
	C374.547363,312.225739 370.229797,311.986725 365.386261,311.567993 
	C363.897278,308.492950 362.949158,305.829987 362.001038,303.166992 
	C369.901062,303.442505 377.878479,303.129791 385.679810,304.155701 
	C393.799377,305.223480 399.908722,313.318329 399.982147,321.593567 
	C400.057465,330.085907 399.986542,338.579559 399.573578,347.470642 
	C396.833862,346.579132 394.500183,345.289642 392.166504,344.000122 
z"/>
<path fill="#89AFE9" opacity="1.000000" stroke="none" 
	d="
M260.464966,269.906219 
	C258.050049,267.161316 256.098633,264.489197 254.537811,261.418823 
	C265.576019,261.013702 276.223816,261.037048 286.871033,260.970154 
	C288.638611,260.959076 290.431854,260.684265 292.165070,260.308990 
	C299.079559,258.811920 303.860779,254.310699 308.120911,249.181625 
	C310.242279,251.337555 312.199188,253.198608 314.156097,255.059662 
	C306.716187,266.366638 295.790619,270.289368 282.793762,270.025665 
	C275.508026,269.877838 268.217102,269.986115 260.464966,269.906219 
z"/>
<path fill="#80BDE6" opacity="1.000000" stroke="none" 
	d="
M314.478607,254.901947 
	C312.199188,253.198608 310.242279,251.337555 308.148865,248.809326 
	C310.353119,242.501770 312.651245,236.843231 315.043701,231.224869 
	C319.628601,220.457962 324.267029,209.713837 328.883209,198.960251 
	C331.290070,199.958282 333.696899,200.956314 336.461609,201.973328 
	C329.480011,219.576279 322.140564,237.160248 314.478607,254.901947 
z"/>
<path fill="#8BABEA" opacity="1.000000" stroke="none" 
	d="
M182.832764,196.000977 
	C180.943863,194.889267 179.034210,193.811020 177.171860,192.656479 
	C175.297287,191.494324 173.469742,190.256332 171.252594,189.045273 
	C167.309540,180.720139 164.339874,172.430496 167.882812,163.174301 
	C171.069504,154.848831 176.605698,149.363892 185.649582,147.276611 
	C187.744843,149.751984 189.391037,151.936462 190.871658,154.442825 
	C189.656387,155.174896 188.623245,155.635300 187.554413,155.987305 
	C178.817093,158.864807 174.284103,167.269897 176.198654,175.995880 
	C177.696106,182.820892 180.570282,189.343826 182.832764,196.000977 
z"/>
<path fill="#83B8E7" opacity="1.000000" stroke="none" 
	d="
M191.037247,154.120941 
	C189.391037,151.936462 187.744843,149.751984 186.029068,147.225586 
	C196.826538,142.253998 207.690430,137.616913 218.562149,132.998245 
	C223.122345,131.060928 227.699127,129.162643 232.702087,127.544373 
	C234.437286,130.266983 235.738800,132.691833 236.872543,135.441589 
	C221.482269,141.884628 206.259750,148.002792 191.037247,154.120941 
z"/>
<path fill="#7BC6E4" opacity="1.000000" stroke="none" 
	d="
M237.040314,135.116699 
	C235.738800,132.691833 234.437286,130.266983 233.069061,127.504913 
	C245.378952,120.774940 258.292389,119.185722 271.733551,123.045792 
	C273.703369,123.611496 275.467377,124.893814 277.663330,126.006126 
	C280.953400,130.250122 283.906769,134.332581 286.527039,138.714020 
	C282.614380,137.622101 278.968903,136.378448 275.467987,134.811783 
	C266.136841,130.636108 256.725708,127.991646 246.583298,131.963669 
	C243.468414,133.183533 240.224899,134.074905 237.040314,135.116699 
z"/>
<path fill="#90A3EC" opacity="1.000000" stroke="none" 
	d="
M291.002441,311.832947 
	C276.311218,311.881866 261.619995,311.930786 246.394043,311.581390 
	C243.906891,308.511749 241.954453,305.840393 240.002029,303.169037 
	C254.693146,303.119659 269.384247,303.070282 284.609619,303.419739 
	C287.096741,306.489990 289.049591,309.161499 291.002441,311.832947 
z"/>
<path fill="#9699EF" opacity="1.000000" stroke="none" 
	d="
M239.538300,303.095551 
	C241.954453,305.840393 243.906891,308.511749 245.930542,311.508392 
	C231.977478,311.882263 217.953201,311.930847 203.392609,311.578186 
	C199.904968,308.506866 196.953659,305.836731 194.002350,303.166595 
	C209.026413,303.118408 224.050491,303.070221 239.538300,303.095551 
z"/>
<path fill="#A480F4" opacity="1.000000" stroke="none" 
	d="
M126.119476,315.056061 
	C125.079887,318.004272 123.241684,320.926086 123.143280,323.905365 
	C122.778450,334.950500 122.987038,346.014557 122.594223,357.433594 
	C119.527672,355.196716 116.847099,352.597748 114.166534,349.998810 
	C114.111389,339.599945 113.791298,329.191223 114.178864,318.808868 
	C114.281647,316.055634 116.560379,313.383636 118.325790,310.412903 
	C121.247543,311.786346 123.683517,313.421204 126.119476,315.056061 
z"/>
<path fill="#AE6FF9" opacity="1.000000" stroke="none" 
	d="
M122.906357,438.536285 
	C120.165138,437.715576 117.497711,436.431396 114.498474,435.073578 
	C114.117981,420.975433 114.069305,406.950958 114.419029,392.533997 
	C117.488998,394.427277 120.160561,396.713013 122.832138,398.998718 
	C122.881470,412.023407 122.930809,425.048126 122.906357,438.536285 
z"/>
<path fill="#A879F6" opacity="1.000000" stroke="none" 
	d="
M122.905800,398.535370 
	C120.160561,396.713013 117.488998,394.427277 114.491898,392.070312 
	C114.117691,378.308167 114.069008,364.617279 114.093430,350.462585 
	C116.847099,352.597748 119.527672,355.196716 122.520828,357.897034 
	C122.882088,371.356293 122.930779,384.714142 122.905800,398.535370 
z"/>
<path fill="#9993F0" opacity="1.000000" stroke="none" 
	d="
M193.538513,303.093353 
	C196.953659,305.836731 199.904968,308.506866 202.929138,311.505005 
	C189.644714,311.881775 176.287415,311.930542 162.440277,311.562195 
	C160.301224,308.486176 158.652023,305.827332 157.002823,303.168457 
	C169.026779,303.118988 181.050735,303.069550 193.538513,303.093353 
z"/>
<path fill="#89AFE9" opacity="1.000000" stroke="none" 
	d="
M392.092896,344.463593 
	C394.500183,345.289642 396.833862,346.579132 399.500824,347.934265 
	C399.882690,362.357788 399.931305,376.715668 399.906982,391.537354 
	C397.496765,390.715851 395.159485,389.430573 392.494476,388.073303 
	C392.117584,373.643219 392.068420,359.285126 392.092896,344.463593 
z"/>
<path fill="#9F89F2" opacity="1.000000" stroke="none" 
	d="
M156.538940,303.095154 
	C158.652023,305.827332 160.301224,308.486176 161.976883,311.489075 
	C153.085022,311.888824 144.157272,311.731201 135.253830,312.124054 
	C132.402115,312.249878 129.614624,313.831879 126.458618,314.901855 
	C123.683517,313.421204 121.247543,311.786346 118.483170,310.085266 
	C121.860237,304.388489 127.835945,303.437012 133.728149,303.104065 
	C141.154953,302.684357 148.624161,303.014954 156.538940,303.095154 
z"/>
<path fill="#8BABEA" opacity="1.000000" stroke="none" 
	d="
M291.465820,311.905945 
	C289.049591,309.161499 287.096741,306.489990 285.073303,303.493378 
	C297.359955,303.118591 309.717163,303.068939 322.635742,303.401428 
	C325.465088,306.466583 327.733063,309.149658 330.001068,311.832703 
	C317.310455,311.881439 304.619812,311.930145 291.465820,311.905945 
z"/>
<path fill="#87B2E8" opacity="1.000000" stroke="none" 
	d="
M330.464569,311.905823 
	C327.733063,309.149658 325.465088,306.466583 323.099365,303.475037 
	C335.692352,303.117615 348.383057,303.068665 361.537415,303.093384 
	C362.949158,305.829987 363.897278,308.492950 364.923035,311.494965 
	C353.643188,311.882324 342.285614,311.930634 330.464569,311.905823 
z"/>
<path fill="#9993F0" opacity="1.000000" stroke="none" 
	d="
M241.954849,376.888306 
	C262.968475,366.539429 286.958588,378.933929 291.652496,401.774170 
	C293.028687,408.470642 293.181366,415.856110 288.679199,422.583740 
	C286.085175,421.226257 283.983673,419.593170 281.933960,417.529785 
	C282.065918,411.964722 283.133362,406.608582 282.041290,401.736511 
	C278.745789,387.033905 263.056213,377.498566 245.971817,383.772308 
	C244.589096,381.247345 243.271973,379.067810 241.954849,376.888306 
z"/>
<path fill="#A185F3" opacity="1.000000" stroke="none" 
	d="
M267.999359,441.833038 
	C256.929474,446.537506 242.908859,443.220764 233.511047,434.996887 
	C221.778931,424.730255 220.199356,411.673523 223.876373,397.226379 
	C226.750977,398.737610 228.933838,400.388519 231.065262,402.495728 
	C231.009094,404.781525 230.953949,406.612488 231.007950,408.440247 
	C231.309189,418.637939 235.701996,426.253937 244.734497,431.381653 
	C250.932190,434.900085 257.456268,433.849182 264.131104,434.183533 
	C265.532562,436.935669 266.765961,439.384369 267.999359,441.833038 
z"/>
<path fill="#9D8BF2" opacity="1.000000" stroke="none" 
	d="
M268.366180,441.901917 
	C266.765961,439.384369 265.532562,436.935669 264.301971,433.860168 
	C272.869751,431.256317 277.892395,425.202515 281.882141,417.960052 
	C283.983673,419.593170 286.085175,421.226257 288.510193,422.929443 
	C286.748016,430.604553 281.023712,435.051361 274.794067,438.992035 
	C272.902527,440.188568 270.760376,440.988983 268.366180,441.901917 
z"/>
<path fill="#9D8BF2" opacity="1.000000" stroke="none" 
	d="
M231.116684,402.039459 
	C228.933838,400.388519 226.750977,398.737610 224.225800,397.019104 
	C226.821030,387.825256 232.522339,381.101715 241.594177,376.941589 
	C243.271973,379.067810 244.589096,381.247345 245.818726,384.083740 
	C237.912552,388.017029 234.219376,394.778809 231.116684,402.039459 
z"/>
<path fill="#000000" opacity="1.000000" stroke="none" 
	d="
M236.872528,135.441589 
	C240.224899,134.074905 243.468414,133.183533 246.583298,131.963669 
	C256.725708,127.991646 266.136841,130.636108 275.467987,134.811783 
	C278.968903,136.378448 282.614380,137.622101 286.577271,139.064285 
	C297.865540,143.747803 308.821899,148.264221 319.650421,153.068863 
	C324.032135,155.013031 328.464874,157.139679 332.293243,159.969513 
	C339.516876,165.309067 339.272949,173.631027 335.985748,181.229904 
	C333.557556,186.843094 331.314819,192.536514 328.936340,198.577209 
	C324.267029,209.713837 319.628601,220.457962 315.043701,231.224869 
	C312.651245,236.843231 310.353119,242.501770 307.984406,248.514450 
	C303.860779,254.310699 299.079559,258.811920 292.165070,260.308990 
	C290.431854,260.684265 288.638611,260.959076 286.871033,260.970154 
	C276.223816,261.037048 265.576019,261.013702 254.464859,261.093292 
	C245.203522,261.110504 236.402420,260.878143 227.608841,261.044281 
	C216.542984,261.253296 208.660599,256.070282 204.289490,246.409241 
	C196.867249,230.004623 190.166046,213.273788 182.997284,196.340515 
	C180.570282,189.343826 177.696106,182.820892 176.198654,175.995880 
	C174.284103,167.269897 178.817093,158.864807 187.554413,155.987305 
	C188.623245,155.635300 189.656387,155.174896 190.871658,154.442825 
	C206.259750,148.002792 221.482269,141.884628 236.872528,135.441589 
z"/>
<path fill="#000000" opacity="1.000000" stroke="none" 
	d="
M231.065262,402.495728 
	C234.219376,394.778809 237.912552,388.017029 245.884323,384.429199 
	C263.056213,377.498566 278.745789,387.033905 282.041290,401.736511 
	C283.133362,406.608582 282.065918,411.964722 281.933960,417.529785 
	C277.892395,425.202515 272.869751,431.256317 264.133911,433.556702 
	C257.456268,433.849182 250.932190,434.900085 244.734497,431.381653 
	C235.701996,426.253937 231.309189,418.637939 231.007950,408.440247 
	C230.953949,406.612488 231.009094,404.781525 231.065262,402.495728 
z"/>
</svg>